<svg width="84" height="83" viewBox="0 0 84 83" fill="none" xmlns="http://www.w3.org/2000/svg">
<path d="M50.9612 75.02C51.917 78.5954 49.7563 82.3205 46.0455 82.6631C39.2553 83.2899 32.3694 82.2545 26.0061 79.6008C17.5493 76.074 10.4867 69.8857 5.91083 61.993C1.33492 54.1002 -0.499302 44.943 0.691901 35.9377C1.88311 26.9324 6.03335 18.581 12.5006 12.1753C18.9679 5.76958 27.3919 1.66654 36.4694 0.500875C45.5469 -0.664794 54.772 1.17188 62.7179 5.72676C70.6637 10.2817 76.8874 17.3009 80.4263 25.6988C83.0886 32.0168 84.1197 38.8501 83.4763 45.5858C83.1244 49.2697 79.3683 51.4083 75.7683 50.4537C72.1903 49.505 70.1476 45.8427 70.2188 42.1656C70.2939 38.2933 69.559 34.4192 68.032 30.7954C65.6346 25.1063 61.4183 20.3511 56.0354 17.2653C50.6525 14.1796 44.4028 12.9354 38.2533 13.725C32.1037 14.5147 26.3969 17.2943 22.0156 21.6339C17.6343 25.9735 14.8227 31.6312 14.0157 37.7318C13.2087 43.8324 14.4513 50.0361 17.5513 55.383C20.6513 60.73 25.4359 64.9223 31.1649 67.3115C34.8176 68.8347 38.7243 69.5709 42.6305 69.5019C46.3308 69.4365 50.0119 71.4694 50.9612 75.02Z" fill="currentColor"/>
</svg>
