<svg width="19" height="17" viewBox="0 0 19 17" fill="none" xmlns="http://www.w3.org/2000/svg">
<path d="M2.00091 12.0013C3.10548 12.0012 4.00098 12.8966 4.00107 14.0012C4.00115 15.1057 3.10579 16.0012 2.00122 16.0013C0.89665 16.0014 0.00115212 15.106 0.00106751 14.0015C0.000982905 12.8969 0.896344 12.0014 2.00091 12.0013Z" fill="black" fill-opacity="0.12"/>
<path d="M11.0011 14.0006C11.001 12.896 10.1055 12.0007 9.00091 12.0007C7.89634 12.0008 7.00098 12.8963 7.00107 14.0009C7.00115 15.1055 7.89665 16.0008 9.00122 16.0007C10.1058 16.0007 11.0012 15.1052 11.0011 14.0006Z" fill="black" fill-opacity="0.12"/>
<path d="M16.0009 12.0002C17.1055 12.0001 18.001 12.8955 18.0011 14.0001C18.0012 15.1046 17.1058 16.0001 16.0012 16.0002C14.8967 16.0003 14.0012 15.1049 14.0011 14.0004C14.001 12.8958 14.8963 12.0003 16.0009 12.0002Z" fill="black" fill-opacity="0.12"/>
<path d="M2.00049 6.00129C3.10506 6.0012 4.00056 6.89656 4.00064 8.00113C4.00072 9.1057 3.10536 10.0012 2.00079 10.0013C0.896223 10.0014 0.000724871 9.10601 0.000640265 8.00144C0.000555659 6.89687 0.895917 6.00137 2.00049 6.00129Z" fill="black" fill-opacity="0.12"/>
<path d="M18.0006 8C18.0006 6.89543 17.1051 6.00007 16.0005 6.00015C14.8959 6.00024 14.0006 6.89574 14.0006 8.00031C14.0007 9.10488 14.8962 10.0002 16.0008 10.0002C17.1054 10.0001 18.0007 9.10457 18.0006 8Z" fill="black" fill-opacity="0.12"/>
<path d="M9.00049 6.00075C10.1051 6.00066 11.0006 6.89603 11.0006 8.0006C11.0007 9.10517 10.1054 10.0007 9.00079 10.0008C7.89622 10.0008 7.00072 9.10547 7.00064 8.0009C7.00056 6.89633 7.89592 6.00083 9.00049 6.00075Z" fill="black" fill-opacity="0.12"/>
<path d="M4.00021 2.00107C4.00013 0.896501 3.10463 0.00113882 2.00006 0.00122342C0.895491 0.00130803 0.000128413 0.896807 0.000213019 2.00138C0.000297624 3.10595 0.895798 4.00131 2.00037 4.00122C3.10494 4.00114 4.0003 3.10564 4.00021 2.00107Z" fill="#474EBB"/>
<path d="M9.00006 0.00068725C10.1046 0.000602644 11.0001 0.895965 11.0002 2.00053C11.0003 3.1051 10.1049 4.0006 9.00037 4.00069C7.8958 4.00077 7.0003 3.10541 7.00021 2.00084C7.00013 0.896271 7.89549 0.000771855 9.00006 0.00068725Z" fill="#474EBB"/>
<path d="M18.0002 2.00012C18.0001 0.895553 17.1046 0.000190657 16.0001 0.000275262C14.8955 0.000359868 14.0001 0.895859 14.0002 2.00043C14.0003 3.105 14.8958 4.00036 16.0004 4.00028C17.1049 4.00019 18.0003 3.10469 18.0002 2.00012Z" fill="#E0E0E0"/>
<path d="M11.0006 8.00063C11.0006 6.89606 10.1051 6.00069 9.00049 6.00078C7.89592 6.00086 7.00056 6.89636 7.00064 8.00093C7.00072 9.1055 7.89622 10.0009 9.00079 10.0008C10.1054 10.0007 11.0007 9.1052 11.0006 8.00063Z" fill="#474EBB"/>
<path d="M3.76905 0.109795C3.76904 0.0545664 3.72427 0.00979862 3.66904 0.00980285L0.100071 0.0100762C0.0448428 0.0100804 7.4832e-05 0.0548551 7.90624e-05 0.110084L0.00128862 15.9015C0.00129285 15.9567 0.0460682 16.0015 0.101297 16.0015L3.67031 16.0012C3.72554 16.0012 3.77031 15.9564 3.7703 15.9012L3.77 12.0033L3.76905 0.109795Z" fill="#474EBB"/>
<path d="M3.76953 0.600015C3.76953 0.544787 3.72475 0.500019 3.66952 0.500023L0.100555 0.500296C0.0453259 0.500301 0.000558133 0.545075 0.000562364 0.600304L0.00127408 9.8921C0.00127831 9.94733 0.0460529 9.9921 0.101282 9.99209L8.90128 9.99142C8.95651 9.99141 9.00128 9.94664 9.00127 9.89141L9.00098 6.09356C9.00098 6.03833 8.9562 5.99356 8.90098 5.99356L3.86994 5.99395C3.81471 5.99395 3.76994 5.94919 3.76994 5.89396L3.76953 0.600015Z" fill="#474EBB"/>
<path d="M4.00129 15.9009C4.0013 15.9562 3.95638 16.001 3.90105 16.0009L0.601055 15.9931C0.545922 15.993 0.501296 15.9482 0.501292 15.8931L0.500082 0.101701C0.500078 0.0463781 0.544994 0.00156393 0.600317 0.00169406L3.90037 0.0094562C3.9555 0.00958588 4.00013 0.0543146 4.00013 0.109448L4.00043 4.00754L4.00129 15.9009Z" fill="#474EBB"/>
</svg>
