<svg width="22" height="20" viewBox="0 0 22 20" fill="none" xmlns="http://www.w3.org/2000/svg">
<path d="M21.7244 9.75807C22.1232 9.34621 22.0847 8.71494 21.6384 8.34847L11.8063 0.269892C11.36 -0.0965818 10.6445 -0.0889048 10.2077 0.287199L0.342162 8.77919C-0.0947202 9.15529 -0.116163 9.78575 0.294687 10.1868L0.542029 10.4287C0.952378 10.8297 1.61566 10.8775 2.02257 10.5351C2.31437 10.2897 2.75986 10.4972 2.75986 10.8784V18.9922C2.75986 19.5491 3.24042 20 3.83306 20H7.67866C8.27131 20 8.75186 19.5491 8.75186 18.9922V15.0945C8.75186 13.74 9.84991 12.6419 11.2044 12.6419C12.5589 12.6419 13.657 13.74 13.657 15.0945V18.9922C13.6484 19.5487 14.0725 19.9996 14.6651 19.9996H18.7405C19.3331 19.9996 19.8137 19.5487 19.8137 18.9918V10.6324C19.8137 10.3972 20.0872 10.2681 20.2686 10.4178C20.5194 10.6248 21.0461 10.4588 21.4449 10.0466L21.7244 9.75807Z" fill="white" stroke="#072C5E"  />
</svg>
