<svg width="17" height="17" viewBox="0 0 17 17" fill="none" xmlns="http://www.w3.org/2000/svg">
<path fill-rule="evenodd" clip-rule="evenodd" d="M4.60419 7.79167C2.84378 7.79167 1.41669 6.36458 1.41669 4.60417C1.41669 2.84376 2.84378 1.41667 4.60419 1.41667C6.36459 1.41667 7.79169 2.84376 7.79169 4.60417C7.79169 6.36458 6.36459 7.79167 4.60419 7.79167ZM1.41669 12.3958C1.41669 14.1562 2.84378 15.5833 4.60419 15.5833C6.36459 15.5833 7.79169 14.1562 7.79169 12.3958C7.79169 10.6354 6.36459 9.20834 4.60419 9.20834C2.84378 9.20834 1.41669 10.6354 1.41669 12.3958ZM9.20835 12.3958C9.20835 14.1562 10.6354 15.5833 12.3959 15.5833C14.1563 15.5833 15.5834 14.1562 15.5834 12.3958C15.5834 10.6354 14.1563 9.20834 12.3959 9.20834C10.6354 9.20834 9.20835 10.6354 9.20835 12.3958ZM9.20835 4.60417C9.20835 6.36458 10.6354 7.79167 12.3959 7.79167C14.1563 7.79167 15.5834 6.36458 15.5834 4.60417C15.5834 2.84376 14.1563 1.41667 12.3959 1.41667C10.6354 1.41667 9.20835 2.84376 9.20835 4.60417ZM12.3959 6.37501C13.3739 6.37501 14.1667 5.58218 14.1667 4.60417C14.1667 3.62617 13.3739 2.83334 12.3959 2.83334C11.4178 2.83334 10.625 3.62617 10.625 4.60417C10.625 5.58218 11.4178 6.37501 12.3959 6.37501ZM6.37502 4.60417C6.37502 5.58218 5.58219 6.37501 4.60419 6.37501C3.62618 6.37501 2.83335 5.58218 2.83335 4.60417C2.83335 3.62617 3.62618 2.83334 4.60419 2.83334C5.58219 2.83334 6.37502 3.62617 6.37502 4.60417ZM12.3959 14.1667C13.3739 14.1667 14.1667 13.3738 14.1667 12.3958C14.1667 11.4178 13.3739 10.625 12.3959 10.625C11.4178 10.625 10.625 11.4178 10.625 12.3958C10.625 13.3738 11.4178 14.1667 12.3959 14.1667ZM6.37502 12.3958C6.37502 13.3738 5.58219 14.1667 4.60419 14.1667C3.62618 14.1667 2.83335 13.3738 2.83335 12.3958C2.83335 11.4178 3.62618 10.625 4.60419 10.625C5.58219 10.625 6.37502 11.4178 6.37502 12.3958Z" fill="#909090"/>
</svg>
