<svg width="597" height="766" viewBox="0 0 597 766" fill="none" xmlns="http://www.w3.org/2000/svg">
<mask id="mask0_28_392" style="mask-type:alpha" maskUnits="userSpaceOnUse" x="0" y="0" width="597" height="766">
<path d="M511.867 766C642.072 493.266 631.493 207.747 420.317 0H0V766H511.867Z" fill="#BB6BD9"/>
<path opacity="0.7" d="M460.246 765.56C587.84 492.982 640.528 207.627 433.587 0H0V765.56H460.246Z" fill="#7D4199"/>
</mask>
<g mask="url(#mask0_28_392)">
<path d="M515.297 765C646.374 492.978 635.724 208.204 423.133 1H0V765H515.297Z" fill="#0EE1CD"/>
<path d="M464.65 763.943C593.431 491.951 646.599 207.217 437.74 0.0293996C437.721 0.0108214 437.695 0 437.669 0H0.1C0.0447715 0 0 0.0447273 0 0.0999558V763.9C0 763.955 0.0447734 764 0.100002 764H464.56C464.598 764 464.633 763.978 464.65 763.943Z" fill="#474EBB"/>
<path opacity="0.58" d="M-113.614 684.755C-229.129 725.173 -307.432 631.767 -332.144 580.013V764.852H707.488V593.567C638.524 643.816 464.562 727.227 320.428 658.877C140.259 573.44 30.779 634.232 -113.614 684.755Z" fill="#E0E0E0"/>
<path d="M73.3494 684.755C-42.1652 725.173 -120.468 631.767 -145.18 580.012V764.852H894.451V593.567C825.487 643.816 651.526 727.227 507.391 658.877C327.223 573.44 217.743 634.232 73.3494 684.755Z" fill="#0EE1CD" fill-opacity="0.48"/>
<path d="M218.6 696.162C103.048 730.955 24.72 650.548 -6.10352e-05 605.996V765.112H1039.97V617.665C970.982 660.92 801.275 676.502 657.094 617.665C476.867 544.118 363.04 652.67 218.6 696.162Z" fill="#00245D" fill-opacity="0.67"/>
</g>
<path d="M435.211 385.361C403.79 345.025 432.727 321.347 425.784 309.008C411.608 252.647 227.992 227 183.216 227C122.341 227 160.878 296.373 160.878 345.025C160.878 346.529 160.878 348.034 160.979 349.438C162.287 370.604 155.143 391.269 141.559 407.62C135.421 414.943 132 423.369 132 432.196C132 460.384 166.815 483.256 209.679 483.256C224.369 483.256 238.053 480.547 249.826 475.933C267.535 468.911 286.955 468.008 305.066 473.826C316.638 477.538 329.215 479.544 342.396 479.544C397.335 479.544 463.175 480.025 463.175 436.891C463.175 411.11 435.211 385.361 435.211 385.361Z" fill="#0EE1CD"/>
<path d="M270.693 278.864L193.959 290.078C192.289 290.354 191.176 291.825 191.454 293.387L196.279 325.742C196.557 327.397 198.042 328.5 199.619 328.224L276.353 317.01C278.023 316.735 279.136 315.264 278.858 313.701L274.033 281.438C273.847 279.783 272.363 278.68 270.693 278.864Z" fill="white"/>
<path opacity="0.9" d="M212.838 295.097L201.844 296.702C199.659 297.021 198.15 299.051 198.475 301.236L200.585 315.42C200.91 317.606 202.946 319.118 205.132 318.799L216.125 317.194C218.311 316.875 219.82 314.845 219.494 312.66L217.384 298.475C217.059 296.29 215.024 294.778 212.838 295.097Z" fill="url(#paint0_linear_28_392)"/>
<path opacity="0.9" d="M261.219 297.885L226.991 302.882C225.898 303.041 225.144 304.056 225.307 305.149L225.584 307.016C225.747 308.108 226.765 308.865 227.858 308.705L262.085 303.708C263.178 303.548 263.933 302.533 263.77 301.441L263.492 299.574C263.33 298.481 262.312 297.725 261.219 297.885Z" fill="url(#paint1_linear_28_392)"/>
<path opacity="0.9" d="M243.729 291.6L225.735 294.227C224.642 294.387 223.887 295.402 224.05 296.495L224.328 298.361C224.49 299.454 225.508 300.21 226.601 300.051L244.595 297.424C245.688 297.264 246.442 296.249 246.28 295.156L246.002 293.29C245.839 292.197 244.821 291.441 243.729 291.6Z" fill="url(#paint2_linear_28_392)"/>
<path d="M239.332 386.5C239.332 386.5 239.053 389.809 237.94 390.085C236.919 390.361 236.177 390.269 235.713 388.798C235.249 387.328 235.435 385.03 235.806 383.651C236.177 382.272 237.754 380.342 238.033 380.25C239.146 379.882 238.218 382.272 237.847 383.375C237.476 384.57 237.105 385.857 237.754 385.949C238.404 385.949 238.96 383.651 239.703 383.467C240.445 383.191 239.332 386.5 239.332 386.5Z" fill="#FA968C"/>
<g filter="url(#filter0_d_28_392)">
<path d="M349.375 503.236V332.82C349.375 329.603 346.684 326.937 343.436 326.937H251.95C248.703 326.937 246.012 329.603 246.012 332.82V503.144H349.375V503.236Z" fill="#04347F"/>
</g>
<g filter="url(#filter1_d_28_392)">
<path d="M349.375 503.604C349.375 506.821 346.684 509.487 343.437 509.487H251.95C248.703 509.487 246.012 506.821 246.012 503.604V487.702H349.375V503.604Z" fill="#04347F"/>
</g>
<g filter="url(#filter2_d_28_392)">
<circle cx="296.645" cy="498.161" r="5.65574" fill="white"/>
</g>
<path d="M342.88 339.071H252.6V487.702H342.88V339.071Z" fill="#F2F2F2"/>
<path opacity="0.7" d="M341.787 339.071H253.507C252.955 339.071 252.507 339.518 252.507 340.071V347.814C252.507 348.366 252.955 348.814 253.507 348.814H341.787C342.34 348.814 342.787 348.366 342.787 347.814V340.071C342.787 339.518 342.34 339.071 341.787 339.071Z" fill="url(#paint3_linear_28_392)"/>
<path d="M292.364 343.391H259.321C258.991 343.391 258.724 343.658 258.724 343.988C258.724 344.318 258.991 344.586 259.321 344.586H292.364C292.694 344.586 292.961 344.318 292.961 343.988C292.961 343.658 292.694 343.391 292.364 343.391Z" fill="white"/>
<path d="M338.996 342.747H338.785C338.023 342.747 337.406 343.365 337.406 344.126C337.406 344.888 338.023 345.505 338.785 345.505H338.996C339.758 345.505 340.375 344.888 340.375 344.126C340.375 343.365 339.758 342.747 338.996 342.747Z" fill="white"/>
<path d="M333.058 342.747H332.846C332.085 342.747 331.468 343.365 331.468 344.126C331.468 344.888 332.085 345.505 332.846 345.505H333.058C333.819 345.505 334.437 344.888 334.437 344.126C334.437 343.365 333.819 342.747 333.058 342.747Z" fill="white"/>
<path d="M327.213 342.747H327.001C326.24 342.747 325.622 343.365 325.622 344.126C325.622 344.888 326.24 345.505 327.001 345.505H327.213C327.974 345.505 328.591 344.888 328.591 344.126C328.591 343.365 327.974 342.747 327.213 342.747Z" fill="white"/>
<g opacity="0.57" filter="url(#filter3_d_28_392)">
<path d="M338.89 361.774H328.498V388.706H338.89V361.774Z" fill="#7D4199"/>
</g>
<g opacity="0.57" filter="url(#filter4_d_28_392)">
<path d="M329.983 361.774H319.591V407.55H329.983V361.774Z" fill="#7D4199"/>
</g>
<path opacity="0.09" d="M318.291 357.914H240.723C239.053 357.914 237.754 359.201 237.754 360.855V393.486C237.754 395.141 239.053 396.428 240.723 396.428H318.291C319.961 396.428 321.26 395.141 321.26 393.486V360.855C321.26 359.201 319.961 357.914 318.291 357.914Z" fill="black"/>
<path d="M318.291 356.719H240.723C239.053 356.719 237.754 358.006 237.754 359.66V392.291C237.754 393.946 239.053 395.233 240.723 395.233H318.291C319.961 395.233 321.26 393.946 321.26 392.291V359.66C321.26 358.006 319.961 356.719 318.291 356.719Z" fill="white"/>
<path d="M401.427 501.398V501.857C401.52 502.96 401.149 505.442 400.499 506.27C401.427 506.178 404.953 505.626 406.716 500.387C406.437 500.111 406.066 499.743 405.788 499.56C405.51 499.284 404.953 498.916 404.582 498.732C403.839 498.273 403.097 497.721 402.633 496.986L398.551 490.276L397.808 494.78L400.406 498.64C400.963 499.376 401.334 500.387 401.427 501.398Z" fill="#FAB9AF"/>
<path d="M402.819 508.476C403.561 508.2 407.458 502.041 407.458 502.041C407.736 501.674 407.644 501.214 407.365 500.938C406.994 500.663 406.623 500.203 406.159 499.835C405.231 502.961 403.097 506.361 400.406 506.086C399.293 505.994 397.344 506.913 397.437 508.568C398.458 508.751 401.056 508.751 402.819 508.476Z" fill="#7D4199"/>
<path d="M225.785 405.803C231.352 404.24 236.548 388.43 236.177 389.35C236.641 388.063 238.682 388.614 238.403 389.901C237.754 393.578 236.919 397.255 235.62 400.839C233.115 408.193 227.733 413.892 220.218 411.042C214.743 408.836 209.918 402.494 207.228 397.622C206.207 395.692 206.856 393.302 208.805 392.199C210.846 391.096 213.444 391.923 214.372 394.129C216.228 398.082 221.517 407.182 225.785 405.803Z" fill="#FA968C"/>
<path d="M219.661 402.31C219.661 402.31 215.115 395.6 214.558 394.313V394.221C214.558 394.13 214.465 394.038 214.372 393.946C213.352 392.015 210.939 391.28 208.898 392.291C206.95 393.302 206.207 395.692 207.228 397.714C208.156 399.553 209.176 401.023 210.197 402.586C210.939 403.597 211.682 404.608 212.517 405.619C213.073 404.884 218.269 402.77 219.661 402.31Z" fill="#56CCF2"/>
<path d="M215.3 430.345C211.774 434.298 191.639 435.952 191.639 435.952C190.155 434.206 192.289 426.485 192.846 418.58C193.402 410.031 193.773 400.564 193.866 395.508C193.959 393.394 195.629 391.74 197.763 391.74H210.568C212.516 391.74 214.186 393.21 214.372 395.141C214.743 399.185 215.3 406.171 215.856 413.065C216.413 420.142 218.269 426.944 215.3 430.345Z" fill="#0066C5"/>
<path d="M190.467 479.785L187.962 487.965L187.312 491.826C187.22 492.469 187.684 493.113 188.333 493.113C191.581 493.205 199.931 493.389 200.117 493.113C201.137 491.458 196.405 490.815 192.972 489.436C191.302 488.793 194.271 480.704 194.271 480.704C194.364 477.027 191.952 475.097 191.952 475.097L190.467 479.785Z" fill="#FA968C"/>
<path d="M196.078 455.879C194.963 458.382 190.506 474.846 188.927 483.343L193.013 484.026C197.378 476.287 203.878 460.962 204.993 458.458V458.382C209.729 450.037 215.487 433.27 216.322 429.78C217.437 425.076 214.744 420.676 210.286 419.993C205.829 419.31 201.278 422.497 200.164 427.201C199.421 430.235 196.635 454.741 196.078 455.879Z" fill="#F2F2F2"/>
<path d="M212.609 496.25L214.372 504.707L213.723 508.567C213.63 509.211 214.094 509.854 214.743 509.854C217.991 509.946 226.341 510.13 226.527 509.854C227.548 508.2 222.816 507.556 219.383 506.178C216.228 502.961 216.228 494.228 216.228 494.228L212.609 496.25Z" fill="#FA968C"/>
<path d="M203.609 467.572C204.073 470.605 209.454 489.081 212.887 498.365L216.599 497.262C215.949 487.518 212.795 469.227 212.424 466.285V466.193C211.774 455.715 208.063 435.952 206.856 432.092C205.186 426.852 199.619 424.095 195.537 425.382C191.454 426.669 190.341 431.54 192.011 436.78C193.124 439.997 203.423 466.193 203.609 467.572Z" fill="white"/>
<path d="M210.753 391.74H209.36C208.966 391.74 208.616 391.975 208.415 392.314C207.603 393.683 206.198 394.681 204.073 394.681C201.948 394.681 200.543 393.683 199.731 392.314C199.53 391.975 199.18 391.74 198.786 391.74H197.578C195.629 391.74 194.052 393.302 193.959 395.141C193.774 400.196 193.495 409.847 192.939 418.58C192.42 425.951 190.529 432.843 191.48 435.454C191.599 435.781 191.941 435.939 192.289 435.913C195.671 435.667 213.439 434.229 216.877 430.989C218.083 429.794 216.599 420.05 215.949 413.065C215.393 406.079 214.743 399.001 214.465 395.049C214.187 393.21 212.609 391.74 210.753 391.74Z" fill="url(#paint4_linear_28_392)"/>
<path d="M228.754 402.126C237.754 398.082 239.053 393.854 240.63 395.692C241.001 396.152 241.001 396.703 240.63 397.163C223.929 417.844 202.959 411.962 193.031 398.266C189.969 394.038 196.372 389.35 199.526 393.67C207.506 404.24 218.454 406.63 228.754 402.126Z" fill="#FAB9AF"/>
<path d="M205.743 399.553C203.052 397.163 199.341 392.843 199.341 392.843C199.341 392.843 197.671 390.912 194.33 392.291C191.639 393.394 192.196 396.519 192.196 396.519C192.289 396.979 193.959 401.299 200.176 405.803C200.176 405.803 206.207 399.92 205.743 399.553Z" fill="#56CCF2"/>
<path opacity="0.68" d="M203.355 386.859C203.394 387.02 203.302 387.184 203.145 387.236C201.289 387.603 199.526 386.5 199.062 384.662L198.352 381.554C198.129 380.578 198.736 379.606 199.71 379.377C200.686 379.148 201.663 379.752 201.895 380.727L203.355 386.859Z" fill="url(#paint5_linear_28_392)"/>
<path d="M206.578 391.74H199.897L201.846 385.122L206.392 385.673L206.578 391.74Z" fill="#FAB9AF"/>
<path d="M207.135 389.258C204.166 389.901 201.104 388.063 200.454 385.03L200.16 383.766C199.557 381.177 201.192 378.595 203.791 378.035C206.357 377.481 208.898 379.11 209.248 381.711C209.399 382.829 209.518 383.996 209.547 385.03C209.547 387.42 208.62 388.89 207.135 389.258Z" fill="#FAB9AF"/>
<path d="M201.753 383.559C202.032 384.754 201.661 385.765 200.918 385.949C200.176 386.133 199.063 384.754 198.877 383.559C198.599 382.364 199.341 381.813 199.99 381.721C200.733 381.537 201.475 382.364 201.753 383.559Z" fill="#FAB9AF"/>
<path opacity="0.68" d="M209.64 379.331C209.733 378.503 209.547 377.768 209.269 377.033C208.527 375.194 206.485 374.367 204.537 375.103C204.351 375.194 204.166 375.194 203.887 375.286L200.733 376.022C198.877 376.481 197.671 378.32 198.042 380.158C198.161 380.629 198.462 381.033 198.879 381.281L199.685 381.76C199.946 381.915 200.163 382.134 200.314 382.397L200.785 383.213C200.81 383.256 200.856 383.283 200.907 383.283C200.914 383.283 200.922 383.283 200.93 383.281C201.481 383.183 201.938 382.544 201.846 381.996C201.66 380.985 202.217 380.066 203.145 379.882L205.929 379.239C207.599 378.871 208.712 379.606 208.99 380.801C209.027 381.017 209.336 381.019 209.374 380.804L209.64 379.331Z" fill="url(#paint6_linear_28_392)"/>
<path opacity="0.68" d="M200.315 376.682C200.129 378.428 206.346 380.542 207.923 380.726C209.594 380.91 211.078 379.715 211.264 377.969C211.449 376.222 210.336 374.66 208.666 374.476C207.088 374.292 200.593 374.935 200.315 376.682Z" fill="url(#paint7_linear_28_392)"/>
<path d="M366.076 378.871C366.076 378.871 367.096 381.261 366.354 383.651C365.612 386.041 366.076 388.982 368.117 391.188C368.117 391.188 368.488 387.787 369.23 386.133C369.88 384.478 369.416 379.698 366.076 378.871Z" fill="url(#paint8_linear_28_392)"/>
<path d="M371.364 377.768C371.364 377.768 367.746 379.974 368.21 383.007C368.21 383.007 366.261 381.629 365.89 377.033C365.519 373.816 371.364 377.768 371.364 377.768Z" fill="url(#paint9_linear_28_392)"/>
<path d="M391.128 391.923C389.365 391.096 387.788 389.809 387.138 387.971C385.932 385.03 383.798 382.732 381.2 381.537C380.475 381.229 379.865 380.691 379.468 380.037C378.95 379.182 378.163 378.32 377.164 378.32H376.835C376.017 378.32 375.354 378.982 375.354 379.8C375.354 380.493 374.869 381.082 374.217 381.316C369.876 382.876 366.725 387.522 366.725 393.026C366.725 398.589 369.961 403.284 374.364 404.776C375.708 405.232 376.855 406.273 377.294 407.622C378.815 412.302 382.679 415.638 387.231 415.638C393.076 415.638 397.901 410.123 397.901 403.413C397.994 398.174 395.118 393.67 391.128 391.923Z" fill="url(#paint10_linear_28_392)"/>
<path d="M368.674 402.218C361.993 413.708 347.89 408.193 336.848 399.92C335.735 399.093 336.756 397.438 338.055 397.99C347.983 402.678 361.808 406.998 362.735 396.244C362.735 396.152 362.735 395.968 362.735 396.06C363.199 389.993 375.076 391.188 368.674 402.218Z" fill="#FAB9AF"/>
<path d="M362.365 430.069C365.798 433.93 385.561 435.584 385.561 435.584C387.046 433.93 380.179 414.719 380.179 414.719C380.179 414.719 383.427 400.839 383.334 395.876C383.241 393.854 381.571 392.199 379.53 392.199H367.004C365.055 392.199 363.478 393.67 363.293 395.6C362.921 399.553 368.21 414.351 368.21 414.351C368.21 414.351 359.396 426.668 362.365 430.069Z" fill="#FAB9AF"/>
<path d="M373.963 507.556C376.375 507.465 377.488 507.097 378.695 506.545L378.231 503.788C378.231 503.604 378.138 503.328 378.231 503.144L378.509 496.526C378.509 495.607 378.138 494.688 377.303 494.136C376.375 493.493 375.076 494.228 375.076 495.331C375.262 498.732 375.262 504.155 373.22 504.799C372.664 504.983 368.952 506.27 368.303 506.453C369.787 507.189 372.664 507.648 373.963 507.556Z" fill="#FA968C"/>
<path d="M373.128 506.821C371.643 506.821 370.251 506.637 368.86 506.453C368.674 506.453 368.488 506.453 368.303 506.453C366.726 507.005 365.705 507.556 366.169 508.476C366.354 508.843 374.52 508.66 377.767 508.568C378.416 508.568 378.88 507.924 378.788 507.281L378.602 506.086C376.839 506.545 374.983 506.821 373.128 506.821Z" fill="#7D4199"/>
<path d="M379.251 470.238C381.57 473.639 400.684 499.56 401.705 498.548C402.54 497.629 388.808 468.675 386.488 465.366C384.168 461.965 380.457 461.322 378.416 462.7C376.467 464.079 376.931 466.929 379.251 470.238Z" fill="#FAB9AF"/>
<path d="M369.324 469.135C369.787 471.8 373.313 486.507 375.633 495.975C376.839 500.755 377.303 504.247 377.767 504.064C378.88 503.604 378.602 471.617 377.86 467.572C377.117 463.528 374.612 460.586 372.2 461.046C369.973 461.506 368.674 465.09 369.324 469.135Z" fill="#FA968C"/>
<path d="M362.735 433.379C363.014 438.71 367.931 472.536 372.107 472.26C376.282 471.984 378.231 437.883 377.952 432.551C377.674 427.22 373.962 423.084 369.787 423.268C365.519 423.543 362.364 428.047 362.735 433.379Z" fill="#FA968C"/>
<path d="M375.169 496.618C375.633 496.894 378.138 496.986 378.602 496.618C378.88 486.783 378.416 470.421 377.952 467.664C377.86 467.388 377.86 467.021 377.767 466.745C376.746 462.792 376.19 458.656 376.653 454.612C377.674 445.328 378.045 435.309 377.86 432.643C377.581 427.312 373.87 423.176 369.695 423.359C365.519 423.635 362.55 427.68 362.55 433.011C362.55 445.971 375.076 496.434 375.169 496.618Z" fill="#F2F2F2"/>
<path d="M370.53 441.559C372.849 445.144 374.983 448.729 376.839 452.498C377.674 443.857 378.045 435.033 377.86 432.551C377.581 427.22 373.87 423.084 369.695 423.268C365.519 423.543 362.55 427.588 362.55 432.919C362.55 433.379 362.55 433.93 362.643 434.482C365.426 436.136 367.839 438.342 369.787 440.916C370.066 441.1 370.344 441.284 370.53 441.559Z" fill="#F2F2F2"/>
<path d="M369.138 432.184C369.231 437.515 375.262 468.124 379.53 468.032C383.705 467.94 385.282 437.147 385.19 431.816C385.097 426.485 380.829 422.256 376.653 422.348C372.385 422.348 369.045 426.76 369.138 432.184Z" fill="#FAB9AF"/>
<path d="M400.963 493.769C397.53 485.312 388.344 467.94 386.489 465.366C385.282 463.712 385.19 435.677 385.19 431.816C385.097 426.485 380.829 422.256 376.653 422.348C372.478 422.44 368.488 426.76 368.581 432.092C368.674 436.504 373.035 460.035 379.251 470.33C380.921 472.995 392.798 489.081 398.551 495.883C399.2 495.607 400.592 494.688 400.963 493.769Z" fill="white"/>
<path d="M381.313 417.28C381.261 417.131 381.246 416.986 381.266 416.829C381.53 414.811 383.42 400.127 383.334 395.508C383.241 393.578 381.757 392.107 379.808 392.107H378.6C378.206 392.107 377.856 392.344 377.653 392.681C376.842 394.031 375.448 394.957 373.406 394.957C371.309 394.957 369.895 393.906 369.094 392.55C368.939 392.286 368.664 392.107 368.358 392.107C367.774 392.107 367.396 392.727 367.498 393.302C368.047 396.41 364.171 397.861 365.046 404.535C365.052 404.582 365.062 404.631 365.075 404.678C366.218 408.689 367.07 412.595 367.33 413.823C367.384 414.079 367.336 414.338 367.198 414.56C365.942 416.58 359.687 427.003 362.365 430.07C365.452 433.542 381.749 435.229 384.997 435.534C385.351 435.567 385.693 435.399 385.753 435.049C386.318 431.796 381.952 419.11 381.313 417.28Z" fill="url(#paint11_linear_28_392)"/>
<path d="M371.365 393.026L377.117 392.475L375.262 386.316L371.55 386.684L371.365 393.026Z" fill="#FAB9AF"/>
<path d="M371.55 386.684L375.262 386.225L375.818 388.155C374.983 389.074 373.963 391.096 372.571 391.096C372.107 391.096 371.736 391.004 371.365 390.729L371.55 386.684Z" fill="#FA968C"/>
<path d="M371.515 389.868C372.829 389.868 374.346 389.256 376.368 387.77C377.581 386.896 378.39 385.322 378.39 384.273C378.39 381.087 375.807 378.504 372.621 378.504C370.002 378.504 367.625 380.311 367.878 382.917C367.932 383.472 368.026 384.048 368.179 384.623C368.684 386.896 370.403 389.868 371.515 389.868Z" fill="#FAB9AF"/>
<path d="M376.19 382.732C376.19 383.927 376.746 384.846 377.489 384.846C378.231 384.846 378.973 383.283 378.973 382.088C378.973 380.893 378.231 380.526 377.489 380.526C376.746 380.526 376.19 381.537 376.19 382.732Z" fill="#FAB9AF"/>
<path d="M375.54 375.102H372.386C371.55 375.102 370.715 374.919 369.973 374.459C368.767 373.816 367.282 373.999 366.447 375.102C365.705 376.205 365.427 377.584 367.468 378.963C368.426 379.567 369.875 378.956 370.817 379.183C370.936 379.212 371.057 379.239 371.179 379.239H373.963C374.983 379.239 375.633 380.066 375.726 380.985C375.726 381.537 376.282 381.996 376.839 381.996C376.895 381.996 376.944 381.961 376.962 381.908L377.269 380.994C377.352 380.748 377.499 380.527 377.695 380.356L378.42 379.723C378.771 379.415 378.973 378.971 378.973 378.503C378.973 376.665 377.396 375.102 375.54 375.102Z" fill="url(#paint12_linear_28_392)"/>
<path d="M334.436 396.795C334.436 396.795 335.643 399.828 336.756 399.737C337.777 399.645 338.519 399.461 338.519 397.898C338.519 396.336 337.684 394.313 336.942 393.118C336.199 391.923 334.158 390.545 333.88 390.545C332.673 390.545 334.251 392.475 334.9 393.486C335.643 394.497 336.292 395.692 335.735 395.876C335.179 396.06 333.972 394.13 333.23 394.13C332.488 394.13 334.436 396.795 334.436 396.795Z" fill="#FAB9AF"/>
<path d="M368.864 378.554C369.421 379.841 369.143 380.577 373.596 381.68C378.05 382.691 379.163 381.496 380.834 383.426C380.834 383.426 379.535 379.933 377.029 379.198C374.524 378.462 370.534 378.646 368.679 376.073C368.679 375.981 368.493 377.727 368.864 378.554Z" fill="url(#paint13_linear_28_392)"/>
<path d="M380.978 399.587C360.115 403.271 350.695 403.798 334.751 390.174C334.159 389.923 333.953 389.231 334.17 388.719C334.351 388.292 334.907 387.922 335.451 388.052C356.659 405.47 380.103 391.759 380.103 391.759C384.316 391.759 386.054 398.916 380.978 399.587Z" fill="#FAB9AF"/>
<path d="M242.022 393.946C242.022 393.946 238.775 394.681 238.682 395.784C238.589 396.887 238.682 397.622 240.259 397.806C241.837 397.99 244.063 397.53 245.362 396.979C246.661 396.427 248.424 394.589 248.517 394.313C248.703 393.118 246.476 394.405 245.362 394.957C244.249 395.508 242.95 395.968 242.857 395.416C242.764 394.773 244.991 393.946 245.084 393.21C245.177 392.383 242.022 393.946 242.022 393.946Z" fill="#FAB9AF"/>
<path d="M209.764 385.663C209.744 385.5 209.495 385.514 209.455 385.673C209.269 386.5 208.341 386.868 207.599 386.408C207.321 386.225 206.949 386.133 206.671 386.225C206.393 386.316 206.114 386.5 205.929 386.776C205.373 387.641 204.206 387.833 203.299 387.353C202.989 387.188 202.713 386.958 202.477 386.698C202.387 386.599 202.296 386.493 202.193 386.386C202.148 386.339 202.109 386.294 202.066 386.245C201.561 385.675 200.948 386.372 201.099 387.118L201.568 389.442C202.217 392.383 205.094 394.313 207.877 393.67C209.362 393.394 210.197 391.923 210.104 389.442C209.991 387.811 209.877 386.594 209.764 385.663Z" fill="url(#paint14_linear_28_392)"/>
<path d="M239.702 383.375C238.96 383.559 238.403 385.857 237.754 385.857C237.383 385.857 237.383 385.397 237.476 384.754C236.919 385.581 236.269 386.317 235.434 386.96C235.434 387.603 235.527 388.247 235.713 388.706C236.177 390.177 236.919 390.269 237.939 389.993C238.96 389.718 239.331 386.409 239.331 386.409C239.331 386.409 240.445 383.191 239.702 383.375Z" fill="#FA968C"/>
<path opacity="0.9" d="M258.713 364.44H247.599C245.39 364.44 243.599 366.231 243.599 368.44V382.776C243.599 384.985 245.39 386.776 247.599 386.776H258.713C260.922 386.776 262.713 384.985 262.713 382.776V368.44C262.713 366.231 260.922 364.44 258.713 364.44Z" fill="url(#paint15_linear_28_392)"/>
<path opacity="0.9" d="M304.972 373.634H270.373C269.268 373.634 268.373 374.529 268.373 375.634V377.541C268.373 378.646 269.268 379.541 270.373 379.541H304.972C306.076 379.541 306.972 378.646 306.972 377.541V375.634C306.972 374.529 306.076 373.634 304.972 373.634Z" fill="url(#paint16_linear_28_392)"/>
<path opacity="0.9" d="M292.138 364.836H270.373C269.268 364.836 268.373 365.731 268.373 366.836V368.743C268.373 369.848 269.268 370.743 270.373 370.743H292.138C293.243 370.743 294.138 369.848 294.138 368.743V366.836C294.138 365.731 293.243 364.836 292.138 364.836Z" fill="url(#paint17_linear_28_392)"/>
<path d="M333.386 389.487C333.386 389.487 333.823 387.093 334.861 385.999C335.915 385.043 335.607 385.989 335.605 386.304C335.607 386.303 334.661 388.508 334.661 388.508C334.661 388.508 333.707 389.49 333.386 389.487Z" fill="#FAB9AF"/>
<path d="M324.693 375.838H342.786C344.271 375.838 345.477 377.033 345.477 378.503V380.709C345.477 382.18 344.271 383.375 342.786 383.375H337.683C336.199 383.375 335.085 384.57 335.085 385.949V396.887" stroke="url(#paint18_linear_28_392)" stroke-width="1.2729" stroke-miterlimit="10"/>
<path d="M342.416 379.606H327.663C327.013 379.606 326.549 379.147 326.549 378.503V373.264C326.549 372.621 327.013 372.161 327.663 372.161H342.416C343.065 372.161 343.529 372.621 343.529 373.264V378.503C343.529 379.055 342.972 379.606 342.416 379.606Z" fill="#7D4199"/>
<path d="M334.993 389.074V397.438" stroke="url(#paint19_linear_28_392)" stroke-width="2.5459" stroke-miterlimit="10"/>
<path d="M333.694 394.313C333.694 394.313 336.663 395.416 336.756 396.427C336.848 397.439 335.086 398.082 335.086 398.082C335.086 398.082 332.859 395.508 333.694 394.313Z" fill="#FAB9AF"/>
<path d="M328.693 415.638H266.786C263.512 415.638 260.857 418.293 260.857 421.567C260.857 424.841 263.512 427.496 266.786 427.496H328.693C331.967 427.496 334.621 424.841 334.621 421.567C334.621 418.293 331.967 415.638 328.693 415.638Z" fill="#E0E0E0"/>
<path d="M328.693 433.011H266.786C263.512 433.011 260.857 435.665 260.857 438.94C260.857 442.214 263.512 444.868 266.786 444.868H328.693C331.967 444.868 334.621 442.214 334.621 438.94C334.621 435.665 331.967 433.011 328.693 433.011Z" fill="#E0E0E0"/>
<path d="M328.693 450.384H266.786C263.512 450.384 260.857 453.038 260.857 456.312C260.857 459.587 263.512 462.241 266.786 462.241H328.693C331.967 462.241 334.621 459.587 334.621 456.312C334.621 453.038 331.967 450.384 328.693 450.384Z" fill="#E0E0E0"/>
<path d="M328.693 467.664H266.786C263.512 467.664 260.857 470.318 260.857 473.593C260.857 476.867 263.512 479.521 266.786 479.521H328.693C331.967 479.521 334.621 476.867 334.621 473.593C334.621 470.318 331.967 467.664 328.693 467.664Z" fill="#E0E0E0"/>
<path d="M334.978 387.246C334.84 387.805 335.53 388.321 335.313 388.723C335.173 388.899 334.94 388.809 334.627 388.562C334.627 388.562 333.991 389.109 333.385 389.489C334.228 390.348 335.336 391.13 336.443 391.529C337.721 391.969 338.03 391.449 338.308 390.714C338.633 389.92 336.863 388.817 336.863 388.817C336.863 388.817 335.117 386.687 334.978 387.246Z" fill="#FAB9AF"/>
<defs>
<filter id="filter0_d_28_392" x="226.012" y="306.937" width="143.363" height="216.299" filterUnits="userSpaceOnUse" color-interpolation-filters="sRGB">
<feFlood flood-opacity="0" result="BackgroundImageFix"/>
<feColorMatrix in="SourceAlpha" type="matrix" values="0 0 0 0 0 0 0 0 0 0 0 0 0 0 0 0 0 0 127 0" result="hardAlpha"/>
<feOffset/>
<feGaussianBlur stdDeviation="10"/>
<feColorMatrix type="matrix" values="0 0 0 0 0 0 0 0 0 0 0 0 0 0 0 0 0 0 0.25 0"/>
<feBlend mode="normal" in2="BackgroundImageFix" result="effect1_dropShadow_28_392"/>
<feBlend mode="normal" in="SourceGraphic" in2="effect1_dropShadow_28_392" result="shape"/>
</filter>
<filter id="filter1_d_28_392" x="226.012" y="467.702" width="143.363" height="61.7846" filterUnits="userSpaceOnUse" color-interpolation-filters="sRGB">
<feFlood flood-opacity="0" result="BackgroundImageFix"/>
<feColorMatrix in="SourceAlpha" type="matrix" values="0 0 0 0 0 0 0 0 0 0 0 0 0 0 0 0 0 0 127 0" result="hardAlpha"/>
<feOffset/>
<feGaussianBlur stdDeviation="10"/>
<feColorMatrix type="matrix" values="0 0 0 0 0 0 0 0 0 0 0 0 0 0 0 0 0 0 0.25 0"/>
<feBlend mode="normal" in2="BackgroundImageFix" result="effect1_dropShadow_28_392"/>
<feBlend mode="normal" in="SourceGraphic" in2="effect1_dropShadow_28_392" result="shape"/>
</filter>
<filter id="filter2_d_28_392" x="270.989" y="472.506" width="51.3115" height="51.3115" filterUnits="userSpaceOnUse" color-interpolation-filters="sRGB">
<feFlood flood-opacity="0" result="BackgroundImageFix"/>
<feColorMatrix in="SourceAlpha" type="matrix" values="0 0 0 0 0 0 0 0 0 0 0 0 0 0 0 0 0 0 127 0" result="hardAlpha"/>
<feOffset/>
<feGaussianBlur stdDeviation="10"/>
<feColorMatrix type="matrix" values="0 0 0 0 0 0 0 0 0 0 0 0 0 0 0 0 0 0 0.25 0"/>
<feBlend mode="normal" in2="BackgroundImageFix" result="effect1_dropShadow_28_392"/>
<feBlend mode="normal" in="SourceGraphic" in2="effect1_dropShadow_28_392" result="shape"/>
</filter>
<filter id="filter3_d_28_392" x="308.498" y="341.774" width="50.392" height="66.932" filterUnits="userSpaceOnUse" color-interpolation-filters="sRGB">
<feFlood flood-opacity="0" result="BackgroundImageFix"/>
<feColorMatrix in="SourceAlpha" type="matrix" values="0 0 0 0 0 0 0 0 0 0 0 0 0 0 0 0 0 0 127 0" result="hardAlpha"/>
<feOffset/>
<feGaussianBlur stdDeviation="10"/>
<feColorMatrix type="matrix" values="0 0 0 0 0 0 0 0 0 0 0 0 0 0 0 0 0 0 0.25 0"/>
<feBlend mode="normal" in2="BackgroundImageFix" result="effect1_dropShadow_28_392"/>
<feBlend mode="normal" in="SourceGraphic" in2="effect1_dropShadow_28_392" result="shape"/>
</filter>
<filter id="filter4_d_28_392" x="299.591" y="341.774" width="50.392" height="85.7752" filterUnits="userSpaceOnUse" color-interpolation-filters="sRGB">
<feFlood flood-opacity="0" result="BackgroundImageFix"/>
<feColorMatrix in="SourceAlpha" type="matrix" values="0 0 0 0 0 0 0 0 0 0 0 0 0 0 0 0 0 0 127 0" result="hardAlpha"/>
<feOffset/>
<feGaussianBlur stdDeviation="10"/>
<feColorMatrix type="matrix" values="0 0 0 0 0 0 0 0 0 0 0 0 0 0 0 0 0 0 0.25 0"/>
<feBlend mode="normal" in2="BackgroundImageFix" result="effect1_dropShadow_28_392"/>
<feBlend mode="normal" in="SourceGraphic" in2="effect1_dropShadow_28_392" result="shape"/>
</filter>
<linearGradient id="paint0_linear_28_392" x1="207.341" y1="295.899" x2="210.569" y2="318.005" gradientUnits="userSpaceOnUse">
<stop stop-color="#E4675F"/>
<stop offset="1" stop-color="#E467E4"/>
</linearGradient>
<linearGradient id="paint1_linear_28_392" x1="225.454" y1="303.852" x2="258.993" y2="300.251" gradientUnits="userSpaceOnUse">
<stop stop-color="#E4675F"/>
<stop offset="1" stop-color="#E467E4" stop-opacity="0.3"/>
</linearGradient>
<linearGradient id="paint2_linear_28_392" x1="224.056" y1="295.219" x2="243.307" y2="292.814" gradientUnits="userSpaceOnUse">
<stop stop-color="#E4675F"/>
<stop offset="1" stop-color="#E467E4" stop-opacity="0.3"/>
</linearGradient>
<linearGradient id="paint3_linear_28_392" x1="297.647" y1="339.071" x2="297.647" y2="348.814" gradientUnits="userSpaceOnUse">
<stop stop-color="#E4675F"/>
<stop offset="1" stop-color="#E467E4"/>
</linearGradient>
<linearGradient id="paint4_linear_28_392" x1="204.276" y1="391.74" x2="204.276" y2="435.952" gradientUnits="userSpaceOnUse">
<stop stop-color="#0066C5"/>
<stop offset="1" stop-color="#66A5DF"/>
</linearGradient>
<linearGradient id="paint5_linear_28_392" x1="200.686" y1="378.963" x2="200.686" y2="387.306" gradientUnits="userSpaceOnUse">
<stop stop-color="#00245D"/>
<stop offset="1" stop-color="#00245D" stop-opacity="0.36"/>
</linearGradient>
<linearGradient id="paint6_linear_28_392" x1="203.819" y1="374.835" x2="203.819" y2="383.283" gradientUnits="userSpaceOnUse">
<stop stop-color="#00245D"/>
<stop offset="1" stop-color="#00245D" stop-opacity="0.36"/>
</linearGradient>
<linearGradient id="paint7_linear_28_392" x1="205.797" y1="374.446" x2="205.797" y2="380.745" gradientUnits="userSpaceOnUse">
<stop stop-color="#00245D"/>
<stop offset="1" stop-color="#00245D" stop-opacity="0.36"/>
</linearGradient>
<linearGradient id="paint8_linear_28_392" x1="366.414" y1="376.923" x2="376.805" y2="380.91" gradientUnits="userSpaceOnUse">
<stop stop-color="#E3E3E3"/>
<stop offset="1" stop-color="#E3E3E3" stop-opacity="0"/>
</linearGradient>
<linearGradient id="paint9_linear_28_392" x1="366.495" y1="374.627" x2="375.616" y2="384.081" gradientUnits="userSpaceOnUse">
<stop stop-color="#E3E3E3"/>
<stop offset="1" stop-color="#E3E3E3" stop-opacity="0"/>
</linearGradient>
<linearGradient id="paint10_linear_28_392" x1="370.259" y1="372.416" x2="416.921" y2="425.665" gradientUnits="userSpaceOnUse">
<stop stop-color="#E3E3E3"/>
<stop offset="1" stop-color="#E3E3E3" stop-opacity="0"/>
</linearGradient>
<linearGradient id="paint11_linear_28_392" x1="373.754" y1="392.107" x2="373.754" y2="435.585" gradientUnits="userSpaceOnUse">
<stop stop-color="#0066C5"/>
<stop offset="1" stop-color="#66A5DF"/>
</linearGradient>
<linearGradient id="paint12_linear_28_392" x1="367.377" y1="372.838" x2="374.759" y2="389.517" gradientUnits="userSpaceOnUse">
<stop stop-color="#E3E3E3"/>
<stop offset="1" stop-color="#E3E3E3" stop-opacity="0"/>
</linearGradient>
<linearGradient id="paint13_linear_28_392" x1="370.015" y1="374.905" x2="376.871" y2="390.437" gradientUnits="userSpaceOnUse">
<stop stop-color="#E3E3E3"/>
<stop offset="1" stop-color="#E3E3E3" stop-opacity="0"/>
</linearGradient>
<linearGradient id="paint14_linear_28_392" x1="205.468" y1="384.202" x2="205.468" y2="393.794" gradientUnits="userSpaceOnUse">
<stop stop-color="#00245D"/>
<stop offset="1" stop-color="#00245D"/>
</linearGradient>
<linearGradient id="paint15_linear_28_392" x1="253.156" y1="364.44" x2="253.156" y2="386.776" gradientUnits="userSpaceOnUse">
<stop stop-color="#E4675F"/>
<stop offset="1" stop-color="#E467E4"/>
</linearGradient>
<linearGradient id="paint16_linear_28_392" x1="268.71" y1="374.375" x2="302.417" y2="375.744" gradientUnits="userSpaceOnUse">
<stop stop-color="#E4675F"/>
<stop offset="1" stop-color="#E467E4" stop-opacity="0.3"/>
</linearGradient>
<linearGradient id="paint17_linear_28_392" x1="268.598" y1="365.577" x2="291.118" y2="366.188" gradientUnits="userSpaceOnUse">
<stop stop-color="#E4675F"/>
<stop offset="1" stop-color="#E467E4" stop-opacity="0.3"/>
</linearGradient>
<linearGradient id="paint18_linear_28_392" x1="335.085" y1="375.838" x2="335.085" y2="396.887" gradientUnits="userSpaceOnUse">
<stop stop-color="#E4675F"/>
<stop offset="1" stop-color="#E467E4"/>
</linearGradient>
<linearGradient id="paint19_linear_28_392" x1="335.493" y1="389.074" x2="335.493" y2="397.438" gradientUnits="userSpaceOnUse">
<stop stop-color="#E4675F"/>
<stop offset="1" stop-color="#E467E4"/>
</linearGradient>
</defs>
</svg>
