<svg width="44" height="43" viewBox="0 0 44 43" fill="none" xmlns="http://www.w3.org/2000/svg">
<path d="M43.7414 14.7773C43.7414 22.8577 37.2579 27.7988 29.2602 27.7988C21.2624 27.7988 11.8621 32.045 11.8621 23.9645C11.8621 15.8841 14.0218 0 22.0196 0C30.0173 0 43.7414 6.69683 43.7414 14.7773Z" fill="#0EE1CD"/>
<path fill-rule="evenodd" clip-rule="evenodd" d="M7.56825 24.8362V19.7213C10.074 21.0598 13.9036 21.8089 18.1638 21.8089C22.424 21.8089 26.2536 21.0598 28.7593 19.7213V24.8362C28.7593 26.1032 24.0651 27.8635 18.1638 27.8635C12.2625 27.8635 7.56825 26.1032 7.56825 24.8362ZM4.54095 24.8362V15.7543C4.54095 12.0055 10.6896 9.69971 18.1638 9.69971C25.638 9.69971 31.7866 12.0055 31.7866 15.7543V24.8362V33.9181C31.7866 37.6669 25.638 39.9727 18.1638 39.9727C10.6896 39.9727 4.54095 37.6669 4.54095 33.9181V24.8362ZM28.7593 28.8032V33.9181C28.7593 35.1851 24.0651 36.9454 18.1638 36.9454C12.2625 36.9454 7.56825 35.1851 7.56825 33.9181V28.8032C10.074 30.1417 13.9036 30.8908 18.1638 30.8908C22.424 30.8908 26.2536 30.1417 28.7593 28.8032ZM18.1638 18.7816C24.0629 18.7816 28.7559 17.0226 28.7593 15.7557L28.7593 15.7543C28.7593 14.4873 24.0651 12.727 18.1638 12.727C12.2625 12.727 7.56825 14.4873 7.56825 15.7543C7.56825 17.0213 12.2625 18.7816 18.1638 18.7816Z" fill="#353A85"/>
</svg>
