<svg width="18" height="16" viewBox="0 0 18 16" fill="none" xmlns="http://www.w3.org/2000/svg">
<path d="M16 10C14.8954 10 14 9.10457 14 8C14 6.89543 14.8954 6 16 6C17.1046 6 18 6.89543 18 8C18 9.10457 17.1046 10 16 10Z" fill="black" fill-opacity="0.12"/>
<path d="M7 8.00003C7 9.1046 7.89543 10 9 10C10.1046 10 11 9.1046 11 8.00003C11 6.89546 10.1046 6.00003 9 6.00003C7.89543 6.00003 7 6.89546 7 8.00003Z" fill="black" fill-opacity="0.12"/>
<path d="M2 10C0.89543 10 0 9.1046 0 8.00003C0 6.89546 0.89543 6.00003 2 6.00003C3.10457 6.00003 4 6.89546 4 8.00003C4 9.1046 3.10457 10 2 10Z" fill="black" fill-opacity="0.12"/>
<path d="M16 16C14.8954 16 14 15.1046 14 14C14 12.8954 14.8954 12 16 12C17.1046 12 18 12.8954 18 14C18 15.1046 17.1046 16 16 16Z" fill="black" fill-opacity="0.12"/>
<path d="M0 14.0001C0 15.1046 0.89543 16.0001 2 16.0001C3.10457 16.0001 4 15.1046 4 14.0001C4 12.8955 3.10457 12.0001 2 12.0001C0.89543 12.0001 0 12.8955 0 14.0001Z" fill="black" fill-opacity="0.12"/>
<path d="M9 16C7.89543 16 7 15.1046 7 14C7 12.8954 7.89543 12 9 12C10.1046 12 11 12.8954 11 14C11 15.1046 10.1046 16 9 16Z" fill="black" fill-opacity="0.12"/>
<path d="M14 2C14 3.10457 14.8954 4 16 4C17.1046 4 18 3.10457 18 2C18 0.89543 17.1046 0 16 0C14.8954 0 14 0.89543 14 2Z" fill="#474EBB"/>
<path d="M9 4C7.89543 4 7 3.10457 7 2C7 0.89543 7.89543 0 9 0C10.1046 0 11 0.89543 11 2C11 3.10457 10.1046 4 9 4Z" fill="#474EBB"/>
<path d="M0 2C0 3.10457 0.89543 4 2 4C3.10457 4 4 3.10457 4 2C4 0.89543 3.10457 0 2 0C0.89543 0 0 0.89543 0 2Z" fill="#474EBB"/>
<path d="M14 15.9C14 15.9552 14.0448 16 14.1 16H17.9C17.9552 16 18 15.9552 18 15.9V0.1C18 0.0447719 17.9552 0 17.9 0H9.1C9.04477 0 9 0.0447715 9 0.1V3.9C9 3.95523 9.04477 4 9.1 4H13.9C13.9552 4 14 4.04477 14 4.1V15.9Z" fill="#474EBB"/>
</svg>
