<svg width="17" height="17" viewBox="0 0 17 17" fill="none" xmlns="http://www.w3.org/2000/svg">
<path fill-rule="evenodd" clip-rule="evenodd" d="M6.37498 2.83334H14.875C15.6574 2.83334 16.2916 3.46761 16.2916 4.25001V13.4583C16.2916 14.2407 15.6574 14.875 14.875 14.875H6.37498H4.95831H2.12498C1.34258 14.875 0.708313 14.2407 0.708313 13.4583V4.25001C0.708313 3.46761 1.34258 2.83334 2.12498 2.83334H4.95831H6.37498ZM4.95831 4.25001H2.12498V6.37501H4.95831V4.25001ZM6.37498 6.37501V4.25001H14.875V6.37501H6.37498ZM4.95831 7.79168H2.12498V9.91668H4.95831V7.79168ZM6.37498 9.91668V7.79168H14.875V9.91668H6.37498ZM4.95831 11.3333H2.12498V13.4583H4.95831V11.3333ZM6.37498 13.4583V11.3333H14.875V13.4583H6.37498Z" fill="black" fill-opacity="0.58"/>
</svg>
