<svg width="18" height="16" viewBox="0 0 18 16" fill="none" xmlns="http://www.w3.org/2000/svg">
<path d="M16.0001 4.00003C14.8955 4.00003 14.0001 3.1046 14.0001 2.00003C14.0001 0.895461 14.8955 3.05176e-05 16.0001 3.05176e-05C17.1046 3.05176e-05 18.0001 0.895461 18.0001 2.00003C18.0001 3.1046 17.1046 4.00003 16.0001 4.00003Z" fill="black" fill-opacity="0.12"/>
<path d="M7.00006 2.00006C7.00006 3.10463 7.89549 4.00006 9.00006 4.00006C10.1046 4.00006 11.0001 3.10463 11.0001 2.00006C11.0001 0.895493 10.1046 6.21974e-05 9.00006 6.21974e-05C7.89549 6.21974e-05 7.00006 0.895493 7.00006 2.00006Z" fill="black" fill-opacity="0.12"/>
<path d="M2.00006 4.00006C0.895491 4.00006 6.10352e-05 3.10463 6.10352e-05 2.00006C6.10352e-05 0.895493 0.895491 6.21974e-05 2.00006 6.21974e-05C3.10463 6.21974e-05 4.00006 0.895493 4.00006 2.00006C4.00006 3.10463 3.10463 4.00006 2.00006 4.00006Z" fill="black" fill-opacity="0.12"/>
<path d="M16 10.0001C14.8954 10.0001 14 9.10463 14 8.00006C14 6.89549 14.8954 6.00006 16 6.00006C17.1046 6.00006 18 6.89549 18 8.00006C18 9.10463 17.1046 10.0001 16 10.0001Z" fill="black" fill-opacity="0.12"/>
<path d="M0 8.00012C0 9.10469 0.89543 10.0001 2 10.0001C3.10457 10.0001 4 9.10469 4 8.00012C4 6.89555 3.10457 6.00012 2 6.00012C0.89543 6.00012 0 6.89555 0 8.00012Z" fill="black" fill-opacity="0.12"/>
<path d="M9 10.0001C7.89543 10.0001 7 9.10463 7 8.00006C7 6.89549 7.89543 6.00006 9 6.00006C10.1046 6.00006 11 6.89549 11 8.00006C11 9.10463 10.1046 10.0001 9 10.0001Z" fill="black" fill-opacity="0.12"/>
<path d="M14 14.0001C14 15.1047 14.8954 16.0001 16 16.0001C17.1046 16.0001 18 15.1047 18 14.0001C18 12.8956 17.1046 12.0001 16 12.0001C14.8954 12.0001 14 12.8956 14 14.0001Z" fill="#474EBB"/>
<path d="M9 16.0001C7.89543 16.0001 7 15.1047 7 14.0001C7 12.8956 7.89543 12.0001 9 12.0001C10.1046 12.0001 11 12.8956 11 14.0001C11 15.1047 10.1046 16.0001 9 16.0001Z" fill="#474EBB"/>
<path d="M7 2C7 3.10457 7.89543 4 9 4C10.1046 4 11 3.10457 11 2C11 0.89543 10.1046 0 9 0C7.89543 0 7 0.89543 7 2Z" fill="#474EBB"/>
<path d="M0 14C0 15.1046 0.89543 16 2 16C3.10457 16 4 15.1046 4 14C4 12.8954 3.10457 12 2 12C0.89543 12 0 12.8954 0 14Z" fill="#E0E0E0"/>
<path d="M7 8.00003C7 9.1046 7.89543 10 9 10C10.1046 10 11 9.1046 11 8.00003C11 6.89546 10.1046 6.00003 9 6.00003C7.89543 6.00003 7 6.89546 7 8.00003Z" fill="#474EBB"/>
<path d="M14.231 15.8914C14.231 15.9466 14.2758 15.9914 14.331 15.9914H17.9C17.9552 15.9914 18 15.9466 18 15.8914V0.1C18 0.0447716 17.9552 0 17.9 0L9.1 0C9.04477 0 9 0.0447715 9 0.1V3.89785C9 3.95308 9.04477 3.99785 9.1 3.99785H14.131C14.1863 3.99785 14.231 4.04262 14.231 4.09785V15.8914Z" fill="#474EBB"/>
<path d="M14 0.100288C14 0.0449648 14.0449 0.000153542 14.1002 0.000288963L17.4002 0.0083456C17.4554 0.00848007 17.5 0.0532122 17.5 0.108345V15.8999C17.5 15.9552 17.4552 16 17.3999 15.9999L9.0999 15.9916C9.04471 15.9915 9 15.9467 9 15.8916V12.0936C9 12.0384 9.04477 11.9936 9.1 11.9936H13.9C13.9552 11.9936 14 11.9488 14 11.8936V0.100288Z" fill="#474EBB"/>
</svg>
