<svg width="18" height="16" viewBox="0 0 18 16" fill="none" xmlns="http://www.w3.org/2000/svg">
<path d="M16 4C14.8954 4 14 3.10457 14 2C14 0.895431 14.8954 0 16 0C17.1046 0 18 0.895431 18 2C18 3.10457 17.1046 4 16 4Z" fill="black" fill-opacity="0.12"/>
<path d="M7 2.00003C7 3.1046 7.89543 4.00003 9 4.00003C10.1046 4.00003 11 3.1046 11 2.00003C11 0.895462 10.1046 3.16799e-05 9 3.16799e-05C7.89543 3.16799e-05 7 0.895462 7 2.00003Z" fill="black" fill-opacity="0.12"/>
<path d="M2 4.00003C0.89543 4.00003 0 3.1046 0 2.00003C0 0.895462 0.89543 3.16799e-05 2 3.16799e-05C3.10457 3.16799e-05 4 0.895462 4 2.00003C4 3.1046 3.10457 4.00003 2 4.00003Z" fill="black" fill-opacity="0.12"/>
<path d="M16 9.99997C14.8954 9.99997 14 9.10454 14 7.99997C14 6.8954 14.8954 5.99997 16 5.99997C17.1046 5.99997 18 6.8954 18 7.99997C18 9.10454 17.1046 9.99997 16 9.99997Z" fill="black" fill-opacity="0.12"/>
<path d="M0 14.0001C0 15.1047 0.89543 16.0001 2 16.0001C3.10457 16.0001 4 15.1047 4 14.0001C4 12.8955 3.10457 12.0001 2 12.0001C0.89543 12.0001 0 12.8955 0 14.0001Z" fill="black" fill-opacity="0.12"/>
<path d="M9 16.0001C7.89543 16.0001 7 15.1046 7 14.0001C7 12.8955 7.89543 12.0001 9 12.0001C10.1046 12.0001 11 12.8955 11 14.0001C11 15.1046 10.1046 16.0001 9 16.0001Z" fill="black" fill-opacity="0.12"/>
<path d="M9 10.0001C7.89543 10.0001 7 9.10463 7 8.00006C7 6.89549 7.89543 6.00006 9 6.00006C10.1046 6.00006 11 6.89549 11 8.00006C11 9.10463 10.1046 10.0001 9 10.0001Z" fill="#E0E0E0"/>
<path d="M0 8.00006C0 9.10463 0.89543 10.0001 2 10.0001C3.10457 10.0001 4 9.10463 4 8.00006C4 6.89549 3.10457 6.00006 2 6.00006C0.89543 6.00006 0 6.89549 0 8.00006Z" fill="#E0E0E0"/>
<path d="M14 14C14 15.1046 14.8954 16 16 16C17.1046 16 18 15.1046 18 14C18 12.8954 17.1046 12 16 12C14.8954 12 14 12.8954 14 14Z" fill="#474EBB"/>
<path d="M0 2C0 3.10457 0.89543 4 2 4C3.10457 4 4 3.10457 4 2C4 0.89543 3.10457 0 2 0C0.89543 0 0 0.89543 0 2Z" fill="#474EBB"/>
<path d="M7 15.9C7 15.9552 7.04477 16 7.1 16H10.9C10.9552 16 11 15.9552 11 15.9V0.1C11 0.0447719 10.9552 0 10.9 0H2.1C2.04477 0 2 0.0447715 2 0.1V3.9C2 3.95523 2.04477 4 2.1 4H6.9C6.95523 4 7 4.04477 7 4.1V15.9Z" fill="#474EBB"/>
<path d="M11 0.1C11 0.0447721 10.9552 0 10.9 0H7.1C7.04477 0 7 0.0447712 7 0.1L7 15.9C7 15.9552 7.04477 16 7.1 16L15.9 16C15.9552 16 16 15.9552 16 15.9V12.1C16 12.0448 15.9552 12 15.9 12L11.1 12C11.0448 12 11 11.9552 11 11.9L11 0.1Z" fill="#474EBB"/>
</svg>
